# xmcd
#
# Track frame offsets: 
#        150
#        16805
#        39126
#        58088
#        88206
#        105120
#        124099
#        147545
#        166012
#        181586
#
# Disc length: 2784 seconds
#
# Revision: 0
# Processed by: cddbd v1.5.2PL0 Copyright (c) Steve Scherf et al.
# Submitted via: ExactAudioCopy v0.99pb3
#
DISCID=710ade0a
DTITLE=Chuck Roberson - Let's Party
DYEAR=2002
DGENRE=Blues
TTITLE0=Keep It In The Bedroom
TTITLE1=You're Gonna Love Me
TTITLE2=Booty Bounce
TTITLE3=It Sho Wasn't Me
TTITLE4=Stroke Me Right
TTITLE5=That Thang
TTITLE6=We're Gonna Party
TTITLE7=You'v Been Caught
TTITLE8=Jealous Love
TTITLE9=Stand Up America
EXTD=
EXTT0=
EXTT1=
EXTT2=
EXTT3=
EXTT4=
EXTT5=
EXTT6=
EXTT7=
EXTT8=
EXTT9=
PLAYORDER=
